<svg width="20" height="21" viewBox="0 0 20 21" fill="none" xmlns="http://www.w3.org/2000/svg">
<path d="M7.64 6.13285H3.9875C3.8359 6.13285 3.6901 6.19158 3.58226 6.29678C3.47436 6.40205 3.41333 6.5453 3.41333 6.69512C3.41333 6.84495 3.47436 6.98819 3.58226 7.09346C3.6901 7.19867 3.8359 7.2574 3.9875 7.2574H4.767L5.52041 14.8594L5.60665 14.8509L5.52041 14.8594C5.58092 15.4698 5.87225 16.0359 6.33695 16.4475C6.8016 16.8591 7.4063 17.0867 8.0331 17.0867H11.9669C11.9669 17.0867 11.9669 17.0867 11.9669 17.0867C12.5938 17.0869 13.1987 16.8593 13.6634 16.4478C14.1283 16.0361 14.4197 15.47 14.4802 14.8594L14.4802 14.8594L15.233 7.2574H16.0125C16.1641 7.2574 16.3099 7.19867 16.4177 7.09346C16.5256 6.98819 16.5867 6.84495 16.5867 6.69512C16.5867 6.5453 16.5256 6.40205 16.4177 6.29678C16.3099 6.19158 16.1641 6.13285 16.0125 6.13285H12.36C12.3495 5.85928 12.2891 5.58952 12.1816 5.33627C12.0627 5.05632 11.8886 4.80209 11.6692 4.58805C11.4498 4.374 11.1895 4.20432 10.9031 4.0886C10.6167 3.97287 10.3098 3.91333 10 3.91333C9.69015 3.91333 9.3833 3.97287 9.09692 4.0886C8.81055 4.20432 8.55021 4.374 8.33081 4.58805C8.11141 4.80209 7.93726 5.05632 7.8184 5.33627C7.71088 5.58952 7.65054 5.85928 7.64 6.13285ZM8.0331 15.9621H8.03308C7.69048 15.9622 7.36048 15.8378 7.10734 15.6136C6.85427 15.3895 6.69621 15.0819 6.66334 14.751L5.92009 7.2574H14.0799L13.3367 14.751C13.3038 15.0819 13.1457 15.3895 12.8927 15.6136C12.6395 15.8378 12.3095 15.9622 11.9669 15.9621H11.9669H8.0331ZM10.8587 5.38473C11.0649 5.58592 11.1888 5.85177 11.2101 6.13285H8.78993C8.81115 5.85177 8.93506 5.58592 9.14128 5.38473C9.36867 5.16289 9.67752 5.03789 10 5.03789C10.3225 5.03789 10.6313 5.16289 10.8587 5.38473ZM9.11167 9.23171C9.11167 9.08188 9.05064 8.93864 8.94274 8.83337C8.8349 8.72816 8.6891 8.66943 8.5375 8.66943C8.3859 8.66943 8.2401 8.72816 8.13226 8.83337C8.02436 8.93864 7.96333 9.08188 7.96333 9.23171V13.9878C7.96333 14.1376 8.02436 14.2809 8.13226 14.3861C8.2401 14.4913 8.3859 14.5501 8.5375 14.5501C8.6891 14.5501 8.8349 14.4913 8.94274 14.3861C9.05064 14.2809 9.11167 14.1376 9.11167 13.9878V9.23171ZM11.8677 8.83337C11.7599 8.72816 11.6141 8.66943 11.4625 8.66943C11.3109 8.66943 11.1651 8.72816 11.0573 8.83337C10.9494 8.93864 10.8883 9.08188 10.8883 9.23171V13.9878C10.8883 14.1376 10.9494 14.2809 11.0573 14.3861C11.1651 14.4913 11.3109 14.5501 11.4625 14.5501C11.6141 14.5501 11.7599 14.4913 11.8677 14.3861C11.9756 14.2809 12.0367 14.1376 12.0367 13.9878V9.23171C12.0367 9.08188 11.9756 8.93864 11.8677 8.83337Z" fill="#E76A42" stroke="#E76A42" stroke-width="0.173333"/>
</svg>