<svg width="20" height="21" viewBox="0 0 20 21" fill="none" xmlns="http://www.w3.org/2000/svg">
<path d="M16.2735 6.80104L16.2736 6.80111C16.3454 6.87286 16.4023 6.95805 16.4412 7.05181C16.48 7.14557 16.5 7.24607 16.5 7.34756C16.5 7.44905 16.48 7.54955 16.4412 7.64331C16.4023 7.73707 16.3454 7.82226 16.2736 7.89401L16.2735 7.89408L8.93188 15.2359L9.28543 15.5895L8.93188 15.2359C8.85842 15.3094 8.76391 15.3581 8.66147 15.3754L5.61003 15.8901L6.12517 12.8384C6.14246 12.736 6.1912 12.6415 6.26464 12.5681L13.6063 5.22621C13.6063 5.22619 13.6063 5.22618 13.6063 5.22616C13.7512 5.08135 13.9477 5 14.1525 5C14.3574 5 14.5538 5.08135 14.6987 5.22616C14.6987 5.22618 14.6987 5.22619 14.6987 5.22621L16.2735 6.80104ZM12.7536 6.46417L12.3999 6.81772L12.7535 7.17137L14.3284 8.74625L14.6819 9.09982L15.0355 8.74625L16.0809 7.70079L16.4345 7.34717L16.0808 6.99362L14.506 5.41938L14.1526 5.06606L13.7991 5.41934L12.7536 6.46417ZM14.1351 9.64664L14.4886 9.29316L14.1352 8.93961L12.561 7.36473L12.2074 7.01102L11.8538 7.36466L6.51907 12.6995L6.40621 12.8124L6.37961 12.9698L6.05956 14.8641L5.94243 15.5573L6.63571 15.4404L8.52997 15.121L8.68746 15.0944L8.80039 14.9815L14.1351 9.64664Z" stroke="#DFE4F1"/>
</svg>
