<svg width="20" height="20" viewBox="0 0 20 20" fill="none" xmlns="http://www.w3.org/2000/svg">
<path d="M10 16.025C8.40207 16.025 6.86959 15.3902 5.73968 14.2603C4.60977 13.1304 3.975 11.5979 3.975 10C3.975 8.40207 4.60977 6.86959 5.73968 5.73968C6.86959 4.60977 8.40207 3.975 10 3.975C11.5979 3.975 13.1304 4.60977 14.2603 5.73968C15.3902 6.86959 16.025 8.40207 16.025 10C16.025 11.5979 15.3902 13.1304 14.2603 14.2603C13.1304 15.3902 11.5979 16.025 10 16.025ZM10 17.1C11.883 17.1 13.689 16.352 15.0205 15.0205C16.352 13.689 17.1 11.883 17.1 10C17.1 8.11696 16.352 6.31105 15.0205 4.97954C13.689 3.64803 11.883 2.9 10 2.9C8.11696 2.9 6.31105 3.64803 4.97954 4.97954C3.64803 6.31105 2.9 8.11696 2.9 10C2.9 11.883 3.64803 13.689 4.97954 15.0205C6.31105 16.352 8.11696 17.1 10 17.1Z" fill="#818CAA" stroke="#818CAA" stroke-width="0.2"></path>
<path d="M10.2614 13.0088C10.3731 13.0088 10.522 12.9842 10.6629 12.9241L10.6478 12.9926C10.546 13.1021 10.3852 13.2024 10.1949 13.2766C9.99535 13.3544 9.77204 13.4 9.56784 13.4C9.30386 13.4 9.14365 13.3243 9.05895 13.1961C8.97077 13.0627 8.94349 12.8425 9.01899 12.5066L9.01906 12.5063L9.60935 9.8374C9.60937 9.83731 9.6094 9.83722 9.60942 9.83712C9.63529 9.72304 9.64659 9.60974 9.58882 9.51737C9.53099 9.4249 9.42329 9.38416 9.30376 9.35678L9.30379 9.35666L9.2989 9.35579L9.04189 9.31018L9.06914 9.18869L10.691 8.99312L9.9206 12.477L9.92052 12.4774C9.89015 12.6173 9.89055 12.75 9.94948 12.8519C10.0132 12.9621 10.1282 13.0088 10.2614 13.0088ZM10.7751 7.26974C10.7751 7.44609 10.7023 7.61604 10.5714 7.74196C10.4404 7.86801 10.2619 7.93948 10.075 7.93948C9.88817 7.93948 9.70969 7.86801 9.57868 7.74196C9.44781 7.61604 9.37503 7.44609 9.37503 7.26974C9.37503 7.09338 9.44781 6.92344 9.57868 6.79751C9.70969 6.67146 9.88817 6.6 10.075 6.6C10.2619 6.6 10.4404 6.67146 10.5714 6.79751C10.7023 6.92344 10.7751 7.09338 10.7751 7.26974Z" fill="#818CAA" stroke="#818CAA" stroke-width="0.2"></path>
</svg>