<svg width="20" height="20" viewBox="0 0 20 20" fill="none" xmlns="http://www.w3.org/2000/svg">
<path d="M7.075 16.5V15.075H8.5H8.575V15V13.575H10H10.075V13.5V12.1339C10.6488 12.3994 11.308 12.575 12 12.575C14.5139 12.575 16.575 10.5139 16.575 8C16.575 5.48608 14.5139 3.425 12 3.425C9.48608 3.425 7.425 5.48608 7.425 8C7.425 8.23223 7.45809 8.44089 7.48978 8.64072C7.49254 8.65814 7.49529 8.6755 7.49801 8.69281L3.58708 12.5869L3.58699 12.5868L3.58402 12.5901L3.44402 12.7471L3.425 12.7684V12.797V16.5V16.575H3.5H7H7.075V16.5ZM8.925 11V12.425H7.5H7.425V12.5V13.925H6H5.925V14V15.425H4.575V13.2495L8.50494 9.30413L8.6912 9.13327L8.72141 9.10556L8.7144 9.06517L8.66848 8.80067C8.66846 8.80058 8.66845 8.80049 8.66844 8.8004C8.61821 8.49903 8.5755 8.23704 8.5755 8C8.5755 6.11391 10.1139 4.575 12 4.575C13.8861 4.575 15.425 6.11392 15.425 8C15.425 9.88593 13.8863 11.4248 12.0005 11.425C11.4181 11.4182 10.8459 11.2712 10.3324 10.9964L10.3324 10.9963L10.3305 10.9954L10.2055 10.9329L10.1897 10.925H10.172H9H8.925V11ZM13.0017 5.92502C12.8585 5.92178 12.7162 5.94718 12.583 5.99972C12.4498 6.05225 12.3284 6.13088 12.226 6.23097C12.1236 6.33106 12.0422 6.4506 11.9866 6.58257C11.9311 6.71454 11.9024 6.85628 11.9024 6.99948C11.9024 7.14267 11.9309 7.28443 11.9864 7.41643C12.0419 7.54843 12.1233 7.66801 12.2256 7.76815C12.328 7.86829 12.4493 7.94697 12.5825 7.99958C12.7157 8.05218 12.858 8.07765 13.0012 8.07448C13.282 8.06827 13.5493 7.95235 13.7458 7.75153C13.9423 7.55071 14.0523 7.28096 14.0524 7.00001C14.0525 6.71907 13.9425 6.44926 13.7462 6.24834C13.5498 6.04743 13.2826 5.93137 13.0017 5.92502Z" fill="#818CAA" stroke="#818CAA" stroke-width="0.15"/>
</svg>