<svg width="20" height="20" viewBox="0 0 20 20" fill="none" xmlns="http://www.w3.org/2000/svg">
<path d="M4.65271 10.6111H6.9016C7.10277 10.6111 7.30083 10.6607 7.47822 10.7556C7.65561 10.8505 7.80684 10.9877 7.91849 11.155L8.41471 11.9006C8.52636 12.0679 8.67759 12.2051 8.85498 12.3C9.03236 12.3949 9.23043 12.4445 9.4316 12.4445H10.5683C10.7694 12.4445 10.9675 12.3949 11.1449 12.3C11.3223 12.2051 11.4735 12.0679 11.5852 11.9006L12.0814 11.155C12.193 10.9877 12.3443 10.8505 12.5216 10.7556C12.699 10.6607 12.8971 10.6111 13.0983 10.6111H15.3472" stroke="#818CAA" stroke-width="1.29" stroke-linecap="round" stroke-linejoin="round"/>
<path d="M8.16667 8.47222H11.8333M5.99722 5.17833L4.676 9.97372C4.55932 10.3967 4.50012 10.8335 4.5 11.2723V14.2778C4.5 14.6019 4.62877 14.9128 4.85798 15.142C5.08719 15.3712 5.39807 15.5 5.72222 15.5H14.2778C14.6019 15.5 14.9128 15.3712 15.142 15.142C15.3712 14.9128 15.5 14.6019 15.5 14.2778V11.2723C15.4999 10.8335 15.4407 10.3967 15.324 9.97372L14.0028 5.17833C13.9016 4.9747 13.7456 4.80334 13.5524 4.6835C13.3591 4.56367 13.1363 4.50012 12.9089 4.5H7.09111C6.86373 4.50012 6.64088 4.56367 6.44764 4.6835C6.25439 4.80334 6.09841 4.9747 5.99722 5.17833Z" stroke="#818CAA" stroke-width="1.29" stroke-linecap="round" stroke-linejoin="round"/>
</svg>
